<svg width="36" height="39" viewBox="0 0 36 39" fill="none" xmlns="http://www.w3.org/2000/svg">
<path d="M18 0C15.6362 0 13.2956 0.516905 11.1117 1.5212C8.92784 2.5255 6.94353 3.99752 5.27208 5.85322C1.89642 9.60097 0 14.684 0 19.9841C0 28.8171 5.166 36.3112 12.312 38.969C13.212 39.1289 13.5 38.5094 13.5 37.9698V34.5925C8.514 35.7916 7.452 31.9146 7.452 31.9146C6.624 29.5965 5.454 28.977 5.454 28.977C3.816 27.738 5.58 27.7779 5.58 27.7779C7.38 27.9178 8.334 29.8363 8.334 29.8363C9.9 32.8739 12.546 31.9746 13.572 31.495C13.734 30.196 14.202 29.3167 14.706 28.8171C10.71 28.3175 6.516 26.5989 6.516 18.9849C6.516 16.7667 7.2 14.9881 8.37 13.5692C8.19 13.0696 7.56 10.9913 8.55 8.29341C8.55 8.29341 10.062 7.75384 13.5 10.3318C14.922 9.89214 16.47 9.67232 18 9.67232C19.53 9.67232 21.078 9.89214 22.5 10.3318C25.938 7.75384 27.45 8.29341 27.45 8.29341C28.44 10.9913 27.81 13.0696 27.63 13.5692C28.8 14.9881 29.484 16.7667 29.484 18.9849C29.484 26.6189 25.272 28.2975 21.258 28.7971C21.906 29.4166 22.5 30.6357 22.5 32.4942V37.9698C22.5 38.5094 22.788 39.1489 23.706 38.969C30.852 36.2912 36 28.8171 36 19.9841C36 17.3598 35.5344 14.7611 34.6298 12.3365C33.7252 9.91195 32.3994 7.70891 30.7279 5.85322C29.0565 3.99752 27.0722 2.5255 24.8883 1.5212C22.7044 0.516905 20.3638 0 18 0Z" fill="#969696"/>
</svg>
